<svg version="1.1" xmlns="http://www.w3.org/2000/svg" xmlns:xlink="http://www.w3.org/1999/xlink" width="99.66666" height="79" viewBox="0,0,99.66666,79"><defs><radialGradient cx="267.70669" cy="162.36925" r="19.49341" gradientUnits="userSpaceOnUse" id="color-1"><stop offset="0" stop-color="#ffe800"/><stop offset="1" stop-color="#ffe800" stop-opacity="0"/></radialGradient></defs><g transform="translate(-190.16667,-140.5)"><g data-paper-data="{&quot;isPaintingLayer&quot;:true}" fill-rule="nonzero" stroke-linejoin="miter" stroke-miterlimit="10" stroke-dasharray="" stroke-dashoffset="0" style="mix-blend-mode: normal"><path d="M190.16667,219.5v-3.75h99.66666v3.75z" fill="#a0a0a0" stroke="none" stroke-width="0" stroke-linecap="butt"/><path d="M190.16667,216.25v-75.75h99.66666v75.75z" fill="#ffdb7e" stroke="none" stroke-width="0" stroke-linecap="butt"/><path d="M218.00997,216.39026v-58.12446h44.07952v58.12446z" fill="#c3c3c3" stroke="none" stroke-width="0" stroke-linecap="butt"/><path d="M240.69795,158.2658l0.43215,57.69231" fill="none" stroke="#000000" stroke-width="1" stroke-linecap="round"/><g stroke="none" stroke-width="0" stroke-linecap="butt"><path d="M218.00997,152.43175v-4.96975h43.86344v4.96975z" fill="#c3c3c3"/><g fill="#ffffff"><path d="M219.65507,151.10629v-2.22863h2.35973v2.22863z"/><path d="M224.13069,151.12464v-2.22863h2.35972v2.22863z"/><path d="M229.13069,151.14299v-2.22863h2.35972v2.22863z"/><path d="M233.99959,151.16135v-2.22863h2.35972v2.22863z"/><path d="M243.2707,151.12464v-2.22863h2.35972v2.22863z"/><path d="M248.0085,151.14299v-2.22863h2.35972v2.22863z"/><path d="M252.87741,151.16134v-2.22863h2.35972v2.22863z"/><path d="M257.74631,151.1797v-2.22863h2.35972v2.22863z"/><path d="M238.83179,151.14299v-2.22863h2.35972v2.22863z"/></g></g><path d="M286.64115,162.36925c0,10.76591 -8.47724,19.49341 -18.93445,19.49341c-10.45721,0 -18.93445,-8.72749 -18.93445,-19.49341c0,-10.76591 8.47724,-19.49341 18.93445,-19.49341c10.45721,0 18.93445,8.72749 18.93445,19.49341z" fill="url(#color-1)" stroke="none" stroke-width="0" stroke-linecap="butt"/><g fill="#ffca43" stroke="none" stroke-width="0" stroke-linecap="butt"><path d="M263.69541,176.2999v-8.28952h8.28952v8.28952z"/><path d="M263.61411,166.59046v-8.28952h8.28952v8.28952z"/></g></g></g></svg>