<svg version="1.1" xmlns="http://www.w3.org/2000/svg" xmlns:xlink="http://www.w3.org/1999/xlink" width="99.66666" height="79" viewBox="0,0,99.66666,79"><g transform="translate(-190.16667,-140.5)"><g data-paper-data="{&quot;isPaintingLayer&quot;:true}" stroke-miterlimit="10" stroke-dasharray="" stroke-dashoffset="0" style="mix-blend-mode: normal"><path d="M190.16667,216.25v-75.75h99.66666v75.75z" fill="#ffeeda" fill-rule="nonzero" stroke="none" stroke-width="0" stroke-linecap="butt" stroke-linejoin="miter"/><path d="M288.45,213.325l-24.25,-26h24.25z" data-paper-data="{&quot;index&quot;:null}" fill="none" fill-rule="nonzero" stroke="#ffad00" stroke-width="2.5" stroke-linecap="round" stroke-linejoin="miter"/><path d="M190.16667,219.5v-3.75h99.66666v3.75z" fill="#a0a0a0" fill-rule="nonzero" stroke="none" stroke-width="0" stroke-linecap="butt" stroke-linejoin="miter"/><g fill-rule="evenodd" stroke-width="1"><g><path d="M210.68038,199.91832c0.30106,0.15053 0.94082,0.48923 0.03763,1.76875c-0.90319,1.27952 -3.49986,1.54295 -3.80093,1.54295c-1.16662,0.03763 -2.59667,0.03763 -4.17726,-0.48923c-4.59122,-1.50532 -4.62885,-6.43524 -3.16117,-7.22553c1.43005,-0.79029 2.06982,2.25797 4.13962,4.10199c0.90319,0.82792 1.99455,1.12899 2.89774,1.31715c1.27952,0.2258 3.72566,-1.20426 4.06436,-1.01609z" fill="#ffab19" stroke="#001026" stroke-linecap="round" stroke-linejoin="round"/><path d="M201.34742,196.87006c0.60213,1.01609 1.76874,2.44614 1.76874,2.44614c0,0 -1.39242,-0.3387 -2.18271,0.30106c-0.63976,0.48923 -0.48923,1.31715 -0.41396,1.58058c-0.48923,-0.48923 -1.09135,-1.16662 -1.46768,-2.48377c-0.37633,-1.31716 0,-2.89774 0.75266,-3.12354c0.75266,-0.15053 0.94083,0.41396 1.54295,1.27952z" fill="#ffffff" stroke="none" stroke-linecap="butt" stroke-linejoin="miter"/></g><path d="M212.56203,203.83215c-0.67739,0.45159 -3.01064,2.10744 -5.98364,3.04826l-0.15053,0.03763c-0.15053,0.03763 -0.2258,0.2258 -0.15053,0.37633c0.63976,0.90319 1.80638,2.70957 -0.26343,3.34933c-1.99454,0.63976 -5.72021,-4.66649 -4.13962,-6.05891c0.71502,-0.52686 1.35478,-0.26342 1.69348,-0.11289c0.18816,0.07527 0.37633,0.07526 0.56449,0.03763c0.45159,-0.15053 1.27952,-0.45159 1.91928,-0.79029c1.61821,-0.82792 1.99454,-1.16662 2.7472,-1.73111c0.75266,-0.56449 2.48378,-1.95691 3.87619,-0.75266c1.20425,1.01609 0.52686,2.14508 -0.1129,2.59668z" fill="#ffab19" stroke="#001026" stroke-linecap="round" stroke-linejoin="round"/><path d="M218.54567,196.0045c0.18816,0.15053 2.48378,2.86011 3.23644,2.18271c0.90319,-0.79029 2.14507,-2.33324 3.49986,-1.09135c1.35478,1.24188 -1.20425,3.34933 -2.2956,3.91382c-2.59668,1.16662 -4.70412,-1.05372 -5.15572,-1.65584c-0.45159,-0.60213 -1.24188,-1.61822 -1.24188,-2.59667c0.03763,-1.05372 1.31715,-1.31716 1.95691,-0.75266z" fill="#97deff" stroke="#001026" stroke-linecap="round" stroke-linejoin="round"/><g><path d="M218.5833,204.77297c0.79029,0.71502 2.5214,2.18271 2.5214,2.18271c0,0 5.38151,-0.94082 5.38151,1.76875c0,1.61821 -2.70957,1.99454 -6.35996,1.65585c-0.2258,-0.03763 -0.45159,-0.1129 -0.63976,-0.26343c-0.82792,-0.71502 -3.1988,-2.82247 -4.70412,-4.29015c-2.22035,-2.18271 -4.06435,-3.61276 -4.06435,-3.61276c-3.1988,-3.12354 -0.60213,-4.44069 0.41396,-6.24706c0.94082,-1.54295 1.35479,-1.24189 3.61276,-0.7903c1.27952,0.18816 2.03218,0.30107 2.86011,0.26344c1.24188,-0.03763 1.01608,1.76874 0.67739,2.70957c0,0 -0.52686,1.39242 -1.01609,2.10745c-0.60213,0.86556 -1.05372,1.43005 -1.50531,1.76874z" fill="#97deff" stroke="#001026" stroke-linecap="round" stroke-linejoin="round"/><path d="M215.42213,201.98814c0,0 -0.5645,-0.45159 -1.16662,-1.01609c-0.75266,-0.67739 -1.50532,-1.24189 -0.75266,-2.40851c0.67739,-0.90319 1.31716,-2.10744 3.01064,-1.01609c1.61821,1.01609 0.9032,1.95691 0.9032,1.95691c-0.82792,1.69348 -1.99455,2.48378 -1.99455,2.48378z" fill="#ffffff" stroke="none" stroke-linecap="butt" stroke-linejoin="miter"/></g><path d="M209.73956,198.90224c0.82792,1.05372 2.10744,2.37088 0.48922,3.46223c-2.22035,1.24188 -4.06436,-2.5214 -4.44069,-3.83856c-0.3387,-1.16662 0.63976,-1.91928 1.46769,-2.55904c1.61821,-1.16662 2.973,-2.22035 4.47832,-1.65585c1.88164,0.67739 0.52686,2.18271 -0.41396,2.86011c-0.56449,0.41396 -1.12899,0.86556 -1.54295,1.12899c-0.1129,0.18816 -0.15053,0.41396 -0.03763,0.60213z" fill="#97deff" stroke="#001026" stroke-linecap="round" stroke-linejoin="round"/><g><path d="M221.59394,173.53764c0.1129,-0.07527 0.30106,-0.03763 0.3387,0.1129l0.97846,4.02672c0,0 2.40851,1.76875 3.12353,3.01064c1.20425,2.06981 1.24189,3.76329 1.24189,3.76329c0,0 2.67193,0.79029 3.12353,2.93537c0.45159,2.14507 -1.20425,6.20943 -8.27925,7.60185c-7.07499,1.39242 -12.75756,-0.52686 -15.4295,-4.81701c-2.67194,-4.29015 1.54295,-9.40823 1.31715,-9.10717l-0.79029,-6.7363c-0.03763,-0.15053 0.15053,-0.26343 0.30106,-0.18816l4.55358,2.973c0,0 1.69348,-0.63976 3.46223,-0.71502c1.05372,-0.07527 1.95691,0 2.82247,0.15053z" fill="#97deff" stroke="#001026" stroke-linecap="butt" stroke-linejoin="miter"/><path d="M227.16361,184.60172c0,0 2.59667,0.67739 3.04826,2.82247c0.45159,2.14507 -1.35478,6.02128 -8.35451,7.37606c-9.10717,1.88164 -13.43495,-3.5375 -10.91355,-7.52659c2.5214,-4.02672 6.84919,-0.60213 10.01036,-0.82792c2.70957,-0.18816 3.01064,-2.55904 6.20944,-1.84401z" fill="#ffffff" stroke="none" stroke-linecap="butt" stroke-linejoin="miter"/><path d="M215.30924,188.62844c0,-0.15053 0.15053,-0.26343 0.30106,-0.2258c0.71502,0.26343 2.74721,0.86556 5.00518,1.01609c2.03218,0.1129 3.23643,0 3.80093,-0.1129c0.18816,-0.03763 0.3387,0.15053 0.26343,0.3387c-0.3387,1.01609 -1.76874,3.83856 -5.7202,3.61276c-3.4246,-0.37633 -3.76329,-2.78483 -3.6504,-4.62885z" fill="#ffffff" stroke="#001026" stroke-linecap="round" stroke-linejoin="round"/><path d="M234.08807,185.01568c-1.76875,1.43005 -4.47832,1.46768 -4.47832,1.46768" fill="none" stroke="#001026" stroke-linecap="round" stroke-linejoin="round"/><path d="M233.59884,189.23057c-2.37088,0.18816 -3.83856,-0.52686 -3.83856,-0.52686" fill="none" stroke="#001026" stroke-linecap="round" stroke-linejoin="round"/><path d="M220.80364,185.46728c0.79029,0 1.61821,0.07527 1.65585,0.3387c0.03763,0.52686 -0.52686,1.58058 -1.12899,1.61821c-0.67739,0.07527 -2.25798,-0.86556 -2.25798,-1.46768c-0.03763,-0.45159 0.97845,-0.48923 1.73111,-0.48923z" fill="#001026" stroke="#001026" stroke-linecap="round" stroke-linejoin="round"/><path d="M203.86882,184.90278c0,0 3.23643,1.05372 4.55358,2.22034" fill="none" stroke="#001026" stroke-linecap="round" stroke-linejoin="round"/><path d="M208.53531,188.44028c-1.61821,0.63976 -4.40305,0.2258 -4.40305,0.2258" fill="none" stroke="#001026" stroke-linecap="round" stroke-linejoin="round"/><g><path d="M225.24433,181.06422c1.09135,1.69348 1.12899,3.61276 0.07527,4.29015c-1.05372,0.67739 -2.78484,-0.1129 -3.91383,-1.80638c-1.09135,-1.69348 -1.12899,-3.61276 -0.07527,-4.29015c1.05372,-0.71502 2.82247,0.1129 3.91383,1.80638z" fill="#ffffff" stroke="#001026" stroke-linecap="round" stroke-linejoin="round"/><path d="M225.0938,183.2093c0,0.41396 -0.30106,0.75265 -0.67739,0.75265c-0.37633,0 -0.67739,-0.33869 -0.67739,-0.75265c0,-0.41396 0.30106,-0.75266 0.67739,-0.75266c0.37633,0 0.67739,0.3387 0.67739,0.75266" fill="#001026" stroke="none" stroke-linecap="butt" stroke-linejoin="miter"/></g><g><path d="M215.91136,182.11795c1.12899,1.65585 1.05372,3.68803 0.03763,4.40305c-1.24188,0.71502 -2.89774,0.18816 -4.02672,-1.46768c-1.16662,-1.65585 -1.24188,-3.80093 -0.07527,-4.62885c1.16662,-0.86556 2.93537,0.03763 4.06436,1.69348z" fill="#ffffff" stroke="#001026" stroke-linecap="round" stroke-linejoin="round"/><path d="M215.68557,184.30066c0,0.41396 -0.30106,0.75266 -0.67739,0.75266c-0.37633,0 -0.6774,-0.3387 -0.6774,-0.75266c0,-0.41396 0.30107,-0.75266 0.6774,-0.75266c0.37633,0.03763 0.67739,0.3387 0.67739,0.75266" fill="#001026" stroke="none" stroke-linecap="butt" stroke-linejoin="miter"/></g></g></g><path d="M196.72,215.86v-17.8h33.8v17.8z" fill="#ffc000" fill-rule="nonzero" stroke="none" stroke-width="NaN" stroke-linecap="butt" stroke-linejoin="miter"/><path d="M195.52,171.06v-25.4h57.4v25.4z" fill="#ffd56c" fill-rule="nonzero" stroke="none" stroke-width="NaN" stroke-linecap="butt" stroke-linejoin="miter"/><path d="M221.44712,158.10178c0,6.42659 -5.35223,11.63636 -11.95455,11.63636c-6.60231,0 -11.95455,-5.20978 -11.95455,-11.63636c0,-6.42659 5.35223,-11.63636 11.95455,-11.63636c6.60231,0 11.95455,5.20978 11.95455,11.63636z" fill="#ffffff" fill-rule="nonzero" stroke="none" stroke-width="NaN" stroke-linecap="butt" stroke-linejoin="miter"/><g fill-rule="nonzero" stroke-linejoin="miter"><path d="M204.39548,164.08601c-0.96936,-0.76476 -0.75538,-2.15906 -0.75538,-2.15906h11.78394c0,0 0.14602,1.25809 -0.75538,2.10071c-0.9014,0.84261 -2.24096,0.70023 -2.24096,0.70023h-5.23731c0,0 -1.82555,0.12288 -2.79491,-0.64188z" fill="#ffd56c" stroke="none" stroke-width="0" stroke-linecap="butt"/><path d="M215.89916,160.16305h-12.52369" data-paper-data="{&quot;index&quot;:null}" fill="none" stroke="#00d60f" stroke-width="1" stroke-linecap="round"/><path d="M203.54217,158.29998l11.9819,0.08469" fill="none" stroke="#d60000" stroke-width="2" stroke-linecap="round"/><path d="M203.37547,161.34864h12.50285" data-paper-data="{&quot;index&quot;:null}" fill="none" stroke="#ff0000" stroke-width="1" stroke-linecap="round"/><path d="M215.83664,155.33601h-12.52369" data-paper-data="{&quot;index&quot;:null}" fill="none" stroke="#00d60f" stroke-width="1" stroke-linecap="round"/><path d="M203.31295,156.52159h12.50285" data-paper-data="{&quot;index&quot;:null}" fill="none" stroke="#ff0000" stroke-width="1" stroke-linecap="round"/><path d="M207.14871,151.97526h5.23731c0,0 1.33957,-0.13777 2.24096,0.67758c0.9014,0.81535 0.75538,2.03274 0.75538,2.03274h-11.78394c0,0 -0.21398,-1.34919 0.75538,-2.08921c0.96936,-0.74002 2.79491,-0.62112 2.79491,-0.62112z" data-paper-data="{&quot;index&quot;:null}" fill="#ffd56c" stroke="none" stroke-width="0" stroke-linecap="butt"/></g><path d="M249.17439,158.46541c0,6.42658 -5.35223,11.63636 -11.95455,11.63636c-6.60232,0 -11.95454,-5.20978 -11.95454,-11.63636c0,-6.42658 5.35223,-11.63637 11.95454,-11.63637c6.60232,0 11.95455,5.20978 11.95455,11.63637z" fill="#ffffff" fill-rule="nonzero" stroke="none" stroke-width="NaN" stroke-linecap="butt" stroke-linejoin="miter"/><g fill-rule="nonzero" stroke-linejoin="miter"><g fill="none" stroke="#ffea00" stroke-width="1.5" stroke-linecap="round"><path d="M232.44713,152.64722l2.72727,10.36364"/><path d="M237.08348,154.10177l-3.63636,8.36364"/><path d="M237.44712,160.10177l1,-6.72727"/><path d="M240.35621,159.3745l-6.18182,-6.18182"/><path d="M236.35621,162.01086l5.09091,-8"/><path d="M243.71985,153.73814l-3.27273,6"/><path d="M230.17439,153.82905l4.45455,7.72727"/><path d="M235.62894,159.73814v-9.09091"/><path d="M239.62894,150.19268l0.72727,8.18182"/></g><path d="M231.71985,166.91995v-8.63636h11.18182v8.63636z" fill="#ff0000" stroke="none" stroke-width="0" stroke-linecap="butt"/></g></g></g></svg>