<svg version="1.1" xmlns="http://www.w3.org/2000/svg" xmlns:xlink="http://www.w3.org/1999/xlink" width="99.66666" height="80.06" viewBox="0,0,99.66666,80.06"><g transform="translate(-190.16667,-139.44)"><g data-paper-data="{&quot;isPaintingLayer&quot;:true}" stroke-miterlimit="10" stroke-dasharray="" stroke-dashoffset="0" style="mix-blend-mode: normal"><path d="M190.16667,216.25v-75.75h99.66666v75.75z" fill="#ffefc5" fill-rule="nonzero" stroke="none" stroke-width="0" stroke-linecap="butt" stroke-linejoin="miter"/><path d="M190.16667,219.5v-3.75h99.66666v3.75z" fill="#a0a0a0" fill-rule="nonzero" stroke="none" stroke-width="0" stroke-linecap="butt" stroke-linejoin="miter"/><g fill-rule="evenodd" stroke-width="1"><g><path d="M237.59432,193.11138c0.33971,0.16986 1.06161,0.55204 0.04246,1.99582c-1.01914,1.44379 -3.94918,1.74104 -4.2889,1.74104c-1.31639,0.04246 -2.93004,0.04246 -4.71354,-0.55204c-5.18065,-1.69857 -5.22311,-7.2614 -3.567,-8.15315c1.61364,-0.89175 2.33554,2.54786 4.67108,4.62861c1.01914,0.93422 2.25061,1.27393 3.26975,1.48625c1.44379,0.25479 4.20397,-1.35886 4.58615,-1.14654z" fill="#ffab19" stroke="#001026" stroke-linecap="round" stroke-linejoin="round"/><path d="M227.06317,189.67177c0.67943,1.14654 1.99582,2.76018 1.99582,2.76018c0,0 -1.57118,-0.38218 -2.46293,0.33971c-0.72189,0.55204 -0.55204,1.48625 -0.46711,1.7835c-0.55204,-0.55204 -1.23147,-1.31639 -1.65611,-2.80265c-0.42464,-1.48625 0,-3.26975 0.84929,-3.52454c0.84929,-0.16986 1.06161,0.46711 1.74104,1.44379z" fill="#ffffff" stroke="none" stroke-linecap="butt" stroke-linejoin="miter"/></g><path d="M239.71754,197.52767c-0.76436,0.50957 -3.39715,2.378 -6.75183,3.43961l-0.16986,0.04246c-0.16986,0.04246 -0.25479,0.25479 -0.16986,0.42464c0.72189,1.01914 2.03829,3.05743 -0.29725,3.77933c-2.25061,0.72189 -6.45458,-5.26558 -4.67108,-6.83676c0.80682,-0.5945 1.52872,-0.29725 1.9109,-0.12739c0.21232,0.08493 0.42464,0.08493 0.63697,0.04246c0.50957,-0.16986 1.44379,-0.50957 2.16568,-0.89175c1.82597,-0.93422 2.25061,-1.31639 3.0999,-1.95336c0.84929,-0.63697 2.80265,-2.20815 4.37383,-0.84929c1.35886,1.14654 0.5945,2.42047 -0.12739,2.93004z" fill="#ffab19" stroke="#001026" stroke-linecap="round" stroke-linejoin="round"/><path d="M246.46937,188.69509c0.21232,0.16986 2.80265,3.22729 3.65193,2.46293c1.01914,-0.89175 2.42047,-2.63279 3.94918,-1.23147c1.52872,1.40132 -1.35886,3.77933 -2.59032,4.41629c-2.93004,1.31639 -5.30804,-1.189 -5.81761,-1.86843c-0.50957,-0.67943 -1.40132,-1.82597 -1.40132,-2.93004c0.04246,-1.189 1.48625,-1.48625 2.20815,-0.84929z" fill="#cd66ff" stroke="#001026" stroke-linecap="round" stroke-linejoin="round"/><g><path d="M246.51184,198.58928c0.89175,0.80682 2.84511,2.46293 2.84511,2.46293c0,0 6.0724,-1.06161 6.0724,1.99582c0,1.82597 -3.05743,2.25061 -7.17647,1.86843c-0.25479,-0.04246 -0.50957,-0.12739 -0.72189,-0.29725c-0.93422,-0.80682 -3.60947,-3.18483 -5.30804,-4.84093c-2.5054,-2.46293 -4.58615,-4.07658 -4.58615,-4.07658c-3.60947,-3.52454 -0.67943,-5.01079 0.46711,-7.04908c1.06161,-1.74104 1.52872,-1.40132 4.07658,-0.89175c1.44379,0.21232 2.29307,0.33971 3.22729,0.29725c1.40132,-0.04246 1.14654,1.99582 0.76436,3.05743c0,0 -0.5945,1.57118 -1.14654,2.378c-0.67943,0.97668 -1.189,1.61364 -1.69857,1.99582z" fill="#cd66ff" stroke="#001026" stroke-linecap="round" stroke-linejoin="round"/><path d="M242.94483,195.44692c0,0 -0.63697,-0.50957 -1.31639,-1.14654c-0.84929,-0.76436 -1.69857,-1.40132 -0.84929,-2.71772c0.76436,-1.01914 1.48625,-2.378 3.39715,-1.14654c1.82597,1.14654 1.01914,2.20815 1.01914,2.20815c-0.93422,1.9109 -2.25061,2.80265 -2.25061,2.80265z" fill="#ffffff" stroke="none" stroke-linecap="butt" stroke-linejoin="miter"/></g><path d="M236.53272,191.96484c0.93422,1.189 2.378,2.67525 0.55204,3.90672c-2.5054,1.40132 -4.58615,-2.84511 -5.01079,-4.33136c-0.38218,-1.31639 0.72189,-2.16568 1.65611,-2.88758c1.82597,-1.31639 3.35468,-2.5054 5.05326,-1.86843c2.12322,0.76436 0.5945,2.46293 -0.46711,3.22729c-0.63697,0.46711 -1.27393,0.97668 -1.74104,1.27393c-0.12739,0.21232 -0.16986,0.46711 -0.04246,0.67943z" fill="#cd66ff" stroke="#001026" stroke-linecap="round" stroke-linejoin="round"/><g><path d="M249.90898,163.34388c0.12739,-0.08493 0.33971,-0.04246 0.38218,0.12739l1.10407,4.54368c0,0 2.71772,1.99582 3.52454,3.39715c1.35886,2.33554 1.40132,4.24643 1.40132,4.24643c0,0 3.01497,0.89175 3.52454,3.31222c0.50957,2.42047 -1.35886,7.00662 -9.34215,8.5778c-7.9833,1.57118 -14.39541,-0.5945 -17.41038,-5.43544c-3.01497,-4.84093 1.74104,-10.61608 1.48625,-10.27637l-0.89175,-7.60112c-0.04246,-0.16986 0.16986,-0.29725 0.33971,-0.21232l5.13819,3.35468c0,0 1.9109,-0.72189 3.90672,-0.80682c1.189,-0.08493 2.20815,0 3.18483,0.16986z" fill="#cd66ff" stroke="#001026" stroke-linecap="butt" stroke-linejoin="miter"/><path d="M256.1937,175.82839c0,0 2.93004,0.76436 3.43961,3.18483c0.50957,2.42047 -1.52872,6.79429 -9.42708,8.32301c-10.27637,2.12322 -15.15977,-3.99165 -12.31466,-8.49287c2.84511,-4.54368 7.72851,-0.67943 11.29551,-0.93422c3.05743,-0.21232 3.39715,-2.88758 7.00662,-2.08075z" fill="#ffffff" stroke="none" stroke-linecap="butt" stroke-linejoin="miter"/><path d="M242.81744,180.37208c0,-0.16986 0.16986,-0.29725 0.33971,-0.25479c0.80682,0.29725 3.0999,0.97668 5.64776,1.14654c2.29307,0.12739 3.65193,0 4.2889,-0.12739c0.21232,-0.04246 0.38218,0.16986 0.29725,0.38218c-0.38218,1.14654 -1.99582,4.33136 -6.45458,4.07658c-3.86425,-0.42464 -4.24643,-3.14236 -4.11904,-5.22311z" fill="#ffffff" stroke="#001026" stroke-linecap="round" stroke-linejoin="round"/><path d="M264.00714,176.2955c-1.99582,1.61364 -5.05326,1.65611 -5.05326,1.65611" fill="none" stroke="#001026" stroke-linecap="round" stroke-linejoin="round"/><path d="M263.45511,181.05151c-2.67525,0.21232 -4.33136,-0.5945 -4.33136,-0.5945" fill="none" stroke="#001026" stroke-linecap="round" stroke-linejoin="round"/><path d="M249.01723,176.80507c0.89175,0 1.82597,0.08493 1.86843,0.38218c0.04246,0.5945 -0.5945,1.7835 -1.27393,1.82597c-0.76436,0.08493 -2.54786,-0.97668 -2.54786,-1.65611c-0.04246,-0.50957 1.10407,-0.55204 1.95336,-0.55204z" fill="#001026" stroke="#001026" stroke-linecap="round" stroke-linejoin="round"/><path d="M229.90828,176.16811c0,0 3.65193,1.189 5.13819,2.5054" fill="none" stroke="#001026" stroke-linecap="round" stroke-linejoin="round"/><path d="M235.17386,180.15975c-1.82597,0.72189 -4.96833,0.25479 -4.96833,0.25479" fill="none" stroke="#001026" stroke-linecap="round" stroke-linejoin="round"/><g><path d="M254.02802,171.83674c1.23147,1.9109 1.27393,4.07658 0.08493,4.84093c-1.189,0.76436 -3.14236,-0.12739 -4.41629,-2.03829c-1.23147,-1.9109 -1.27393,-4.07658 -0.08493,-4.84093c1.189,-0.80682 3.18483,0.12739 4.41629,2.03829z" fill="#ffffff" stroke="#001026" stroke-linecap="round" stroke-linejoin="round"/><path d="M253.85817,174.25721c0,0.46711 -0.33971,0.84929 -0.76436,0.84929c-0.42464,0 -0.76436,-0.38218 -0.76436,-0.84929c0,-0.46711 0.33971,-0.84929 0.76436,-0.84929c0.42464,0 0.76436,0.38218 0.76436,0.84929" fill="#001026" stroke="none" stroke-linecap="butt" stroke-linejoin="miter"/></g><g><path d="M243.49687,173.02575c1.27393,1.86843 1.189,4.16151 0.04246,4.96833c-1.40132,0.80682 -3.26975,0.21232 -4.54368,-1.65611c-1.31639,-1.86843 -1.40132,-4.2889 -0.08493,-5.22311c1.31639,-0.97668 3.31222,0.04246 4.58615,1.9109z" fill="#ffffff" stroke="#001026" stroke-linecap="round" stroke-linejoin="round"/><path d="M243.24208,175.48868c0,0.46711 -0.33971,0.84929 -0.76436,0.84929c-0.42464,0 -0.76436,-0.38218 -0.76436,-0.84929c0,-0.46711 0.33971,-0.84929 0.76436,-0.84929c0.42464,0.04246 0.76436,0.38218 0.76436,0.84929" fill="#001026" stroke="none" stroke-linecap="butt" stroke-linejoin="miter"/></g></g></g><path d="M208.92286,214.69v-22.6h63.6v22.6z" fill="#ffe491" fill-rule="nonzero" stroke="#bbbbbb" stroke-width="2.5" stroke-linecap="butt" stroke-linejoin="miter"/><g fill-rule="nonzero" stroke="none" stroke-linecap="butt" stroke-linejoin="miter"><path d="M259.45961,163.49v-19.41861h19.26326v19.41861z" fill="#91d87b" stroke-width="0"/><text transform="translate(259.32286,161.09) scale(0.5,0.5)" font-size="40" xml:space="preserve" fill="#e9e9e9" fill-rule="nonzero" stroke="none" stroke-width="1" stroke-linecap="butt" stroke-linejoin="miter" stroke-miterlimit="10" stroke-dasharray="" stroke-dashoffset="0" font-family="Sans Serif" font-weight="normal" text-anchor="start" style="mix-blend-mode: normal"><tspan x="0" dy="0">産</tspan></text></g><g fill-rule="nonzero" stroke="none" stroke-linecap="butt" stroke-linejoin="miter"><path d="M229.09309,163.69v-19.4186h19.26326v19.4186z" fill="#91d87b" stroke-width="0"/><text transform="translate(228.52286,161.69) scale(0.5,0.5)" font-size="40" xml:space="preserve" fill="#e9e9e9" fill-rule="nonzero" stroke="none" stroke-width="1" stroke-linecap="butt" stroke-linejoin="miter" stroke-miterlimit="10" stroke-dasharray="" stroke-dashoffset="0" font-family="Sans Serif" font-weight="normal" text-anchor="start" style="mix-blend-mode: normal"><tspan x="0" dy="0">土</tspan></text></g><g fill-rule="nonzero" stroke="none" stroke-linecap="butt" stroke-linejoin="miter"><path d="M198.92286,163.6686v-19.41861h19.26325v19.41861z" fill="#91d87b" stroke-width="0"/><text transform="translate(198.32286,160.89) scale(0.5,0.5)" font-size="40" xml:space="preserve" fill="#e9e9e9" fill-rule="nonzero" stroke="none" stroke-width="1" stroke-linecap="butt" stroke-linejoin="miter" stroke-miterlimit="10" stroke-dasharray="" stroke-dashoffset="0" font-family="Sans Serif" font-weight="normal" text-anchor="start" style="mix-blend-mode: normal"><tspan x="0" dy="0">お</tspan></text></g><path d="M209.56594,204.53308l61.8,-0.4" fill="none" fill-rule="nonzero" stroke="#bbbbbb" stroke-width="2.5" stroke-linecap="round" stroke-linejoin="miter"/><g fill-rule="nonzero"><path d="M215.30779,213.16798c0,-0.12565 0.03524,-0.30614 0.23021,-0.34688c0.28128,-0.05901 0.6031,0.22582 0.69063,0.30962c-0.00647,0.03335 0.10298,0.7062 0.10298,0.76453c0,0.19723 -0.05271,0.20505 -0.07317,0.20829c-0.19259,0.02803 -0.70584,-0.51167 -0.94143,-0.82568c-0.00324,-0.01704 -0.00922,-0.05497 -0.00922,-0.10988z" fill="#ffc93e" stroke="#603813" stroke-width="0.5" stroke-linecap="butt" stroke-linejoin="miter"/><path d="M214.52792,214.1108c-0.13962,-0.15148 -0.15954,-0.56199 -0.15954,-0.73662c0,-0.0741 0.00378,-0.12338 0.00397,-0.12491l0.00025,-0.00379c0,0 -0.00043,-0.01582 -0.00043,-0.02162c0,-0.32886 0.30278,-0.44302 0.35409,-0.46018c0.1753,0.00214 0.47831,0.08508 0.55064,0.21024c0.00733,0.01258 0.01417,0.02846 0.01417,0.0488c0,0.01784 -0.00531,0.03946 -0.02046,0.06555c-0.00702,0.01197 -0.13151,0.30614 -0.23681,0.5317l-0.07525,0.20859c-0.05632,0.18226 -0.14494,0.36465 -0.24139,0.36465c-0.07622,0.00012 -0.1381,-0.02688 -0.18923,-0.0824v0z" fill="#ffc93e" stroke="#603813" stroke-width="0.5" stroke-linecap="butt" stroke-linejoin="miter"/><path d="M218.47681,211.72673l-0.13614,-0.24023c-0.1491,-0.25965 -0.32135,-0.49738 -0.47325,-0.70664c-0.19528,-0.26954 -0.3652,-0.54843 -0.42145,-0.74548c-0.02028,-0.07098 -0.01051,-0.13871 0.01869,-0.17615c0.00281,-0.01008 0.03225,-0.02614 0.05301,-0.03042c0.25019,-0.05405 1.2858,0.5405 1.54417,0.8583c0.37851,0.46543 0.52986,1.11832 0.44545,1.44717c-0.03464,0.13437 -0.11208,0.2296 -0.22422,0.27493c-0.28665,0.1158 -0.4752,-0.09321 -0.80626,-0.68147v0z" fill="#ffc93e" stroke="#603813" stroke-width="0.5" stroke-linecap="butt" stroke-linejoin="miter"/><path d="M214.4002,207.13852c0.36765,-0.1998 -0.01178,-0.95206 -0.37888,-1.67976c-0.20064,-0.39788 -0.55845,-1.06988 -0.44216,-1.13286c0.22496,-0.12192 1.29967,1.14635 1.73535,1.65753l0.44411,0.50587c0,0 0.3175,0.3895 0.56047,0.64641c0.00428,0.00446 0.234,-0.03121 0.39269,-0.16309c0.12936,-0.10792 0.11226,-0.22868 0.15343,-0.48265c0.0378,-0.23333 0.07886,-0.65557 0.20407,-0.65771c0.18861,-0.00287 0.31261,0.77455 0.36092,1.06254l0.02669,0.15405c0.06334,0.34253 0.39379,1.37241 0.40796,1.41608c0.00452,0.01062 0.01198,0.02443 0.01198,0.02443l0.00274,0.00556l0.00378,0.00464c0.51027,0.63285 0.88976,1.40019 0.88976,2.11911c0,1.52236 -1.33448,2.59401 -3.1207,2.59401c-0.3313,0 -0.65533,-0.04642 -0.96311,-0.13768l-0.01655,-0.00476c0,0 -0.48314,-0.04062 -1.10121,0.77181c-0.12399,0.16308 -0.11294,0.31511 -0.28769,0.26832c-0.05827,-0.01558 -0.10109,-0.0584 -0.13602,-0.13615c-0.08356,-0.18543 -0.02188,-0.62478 0.08026,-0.90551l0.01607,-0.0441l-0.03689,-0.0292c-0.00904,-0.00721 -1.01149,-0.73766 -1.11276,-1.7844c-0.08827,-0.91241 0.37265,-1.4319 0.56389,-1.71739l0.10988,-0.18299c0.13871,-0.33747 -0.12235,-0.80681 -0.35274,-1.22093c-0.13755,-0.24725 -0.35958,-0.60805 -0.30943,-0.69283c0.05565,-0.09394 0.25452,0.00605 0.45535,0.10183c0.16284,0.07782 0.31951,0.18776 0.42829,0.11525c0.11312,-0.07531 0.03891,-0.26448 -0.06389,-0.52633c-0.09669,-0.24591 -0.27975,-0.63437 -0.20945,-0.79471c0.01936,-0.0441 0.05332,-0.07507 0.10383,-0.09467c0.18679,-0.07232 0.45382,0.24231 0.66999,0.4884c0.26368,0.30046 0.56273,0.64091 0.90997,0.45187v0z" fill="#ffc93e" stroke="#603813" stroke-width="0.5" stroke-linecap="round" stroke-linejoin="round"/><g stroke="none" stroke-width="0.66342" stroke-linecap="butt" stroke-linejoin="miter"><path d="M214.70847,210.73014v0c0,-0.27473 0.22269,-0.49755 0.4975,-0.49767c0.27468,0 0.49737,0.22294 0.49737,0.49767c0,0.27456 -0.22264,0.4972 -0.49737,0.4972c-0.27474,0 -0.4975,-0.22264 -0.4975,-0.4972z" fill="#ffffff"/><path d="M215.27292,210.36659c0.09656,0 0.18409,0.03922 0.24743,0.10262c0.0634,0.06334 0.10261,0.15086 0.10261,0.24743c0,0.09657 -0.03921,0.1841 -0.10261,0.24743c-0.06334,0.06341 -0.15087,0.10262 -0.24743,0.10262c-0.09657,0 -0.1841,-0.03921 -0.24743,-0.10262c-0.06341,-0.06333 -0.10262,-0.15086 -0.10262,-0.24743c0,-0.09657 0.03921,-0.18409 0.10262,-0.24743c0.06333,-0.0634 0.15086,-0.10262 0.24743,-0.10262z" fill="#603813"/></g><g stroke="none" stroke-width="0.66342" stroke-linecap="butt" stroke-linejoin="miter"><path d="M217.10477,210.73014v0c0,-0.27473 0.22269,-0.49755 0.49755,-0.49767c0.27468,0 0.49738,0.22294 0.49738,0.49767c0,0.27456 -0.22283,0.4972 -0.49738,0.4972c-0.27486,0 -0.49755,-0.22264 -0.49755,-0.4972z" fill="#ffffff"/><path d="M217.3191,210.71665v0c0,-0.19326 0.15661,-0.35005 0.34999,-0.35005c0.19325,0 0.35005,0.15686 0.35005,0.35005c0,0.19344 -0.15679,0.34992 -0.35005,0.34992c-0.19338,0 -0.34999,-0.15661 -0.34999,-0.34992z" fill="#603813"/></g><path d="M211.27382,212.65044c-0.10195,-0.06511 -0.1607,-0.17261 -0.17017,-0.31127c-0.02303,-0.33905 0.2453,-0.95309 0.70235,-1.34144c0.31212,-0.26521 1.43905,-0.66028 1.67506,-0.56152c0.01948,0.00818 0.04562,0.0292 0.04642,0.03983c0.02205,0.04202 0.01911,0.11025 -0.01381,0.17634c-0.09125,0.18348 -0.3093,0.42677 -0.5507,0.65576c-0.18764,0.17859 -0.40026,0.38028 -0.59418,0.60853l-0.17787,0.21073c-0.43288,0.51809 -0.65673,0.68947 -0.91711,0.52303v0z" fill="#ffc93e" stroke="#603813" stroke-width="0.5" stroke-linecap="butt" stroke-linejoin="miter"/><path d="M216.86656,212.29569c0,0 -0.45279,0.00036 -0.76986,-0.27138" fill="none" stroke="#603813" stroke-width="0.5" stroke-linecap="round" stroke-linejoin="round"/></g><g fill-rule="nonzero"><path d="M235.00431,212.79637v0v0v0v0v0v0c0.17944,0.33336 -0.18616,0.83152 -0.21649,0.87532c-0.05236,0.05109 0,0 -0.00088,0.00125c0,0 -0.26273,0.28368 -0.43651,0.18747c-0.07401,-0.04085 -0.10744,-0.11327 -0.10914,-0.20816c-0.03247,-0.01038 -0.07739,-0.03239 -0.09749,-0.07994c-0.0335,-0.07905 0.1352,-0.14014 0.1352,-0.14014v0.00117c0.00774,-0.02444 0.01606,-0.04953 0.02614,-0.07559c0.057,-0.1475 0.19749,-0.43589 0.19749,-0.43589c0,0 0.31995,-0.46313 0.50169,-0.12549z" fill="#9a8479" stroke="#000000" stroke-width="0.5" stroke-linecap="round" stroke-linejoin="round"/><path d="M237.02995,213.28886v0v0v0v0v0v0c0,0 0.16871,0.06124 0.13498,0.14022c-0.01996,0.04792 -0.06502,0.06985 -0.09735,0.08038c-0.0017,0.09443 -0.03505,0.16716 -0.10913,0.20801c-0.1131,0.06249 -0.25508,-0.02981 -0.34079,-0.10209c-0.04035,-0.02716 -0.08564,-0.05668 -0.12576,-0.07979c-0.10125,-0.05837 -0.34212,-0.45401 -0.29609,-0.67637c0.04603,-0.22236 0.53298,0 0.53298,0c0.11332,0.10894 0.23586,0.25313 0.2751,0.35493c0.00995,0.02612 0.01842,0.05145 0.02607,0.07618v-0.00148z" fill="#9a8479" stroke="#000000" stroke-width="0.5" stroke-linecap="round" stroke-linejoin="round"/><path d="M235.19915,213.64055v0v0v0v0v0v0c0.31825,0.12123 0.44387,0.18725 0.39903,0.44082c-0.03365,0.19012 0.12864,0.60762 0.12864,0.60762c0,0 0.07879,0.02259 0.05176,0.08612c-0.02702,0.06425 -0.22245,0.10695 -0.47576,0.09348c-0.25323,-0.0134 -0.4522,-0.01045 -0.48091,-0.07125c-0.02879,-0.0605 0.024,-0.08869 0.024,-0.08869c0,0 0.00979,-0.14346 0.01009,-0.29766c0,-0.15421 -0.02452,-0.57612 -0.02452,-0.57612c0,0 0.04941,-0.31555 0.36767,-0.19432z" fill="#9a8479" stroke="#000000" stroke-width="0.5" stroke-linecap="butt" stroke-linejoin="miter"/><path d="M236.02092,213.69686v0v0v0v0v0v0c0.23932,-0.10923 0.38482,-0.12734 0.44616,0.00015c0,0 0.11996,0.22406 0.18033,0.45746c0.06024,0.23326 0.10339,0.50155 0.10339,0.50155c0,0 0.07997,0.04255 0.07938,0.0845c-0.00044,0.04196 -0.06929,0.12403 -0.43231,0.13426c-0.36289,0.00978 -0.49218,-0.04976 -0.50338,-0.10467c-0.01149,-0.05484 0.03107,-0.05969 0.03107,-0.05969c0,0 0.00501,-0.05955 0,-0.2036c-0.00493,-0.14404 -0.06473,-0.40932 -0.06473,-0.40932c0,0 -0.07923,-0.2914 0.16009,-0.40064z" fill="#9a8479" stroke="#000000" stroke-width="0.5" stroke-linecap="butt" stroke-linejoin="miter"/><path d="M235.47432,212.50107v0v0v0v0v0v0c0.6614,-0.05116 0.91404,0.3324 0.9139,0.33233c0.05383,0.09907 0.12069,0.23885 0.14845,0.36648c0.00765,0.03526 0.01237,0.07493 0.01355,0.11748c0,0 -0.0039,0.14779 -0.01826,0.19291c-0.06023,0.18902 -0.15832,0.39593 -0.39292,0.48948c-0.36833,0.1475 -0.76037,0.1294 -1.16773,-0.06441c-0.13747,-0.06522 -0.21892,-0.17636 -0.26288,-0.30288c-0.03137,-0.09105 -0.04477,-0.20978 -0.04477,-0.20978c-0.0193,-0.19748 0.01524,-0.39026 0.03365,-0.4741c0,0 0.11569,-0.39637 0.77701,-0.44752z" fill="#9a8479" stroke="#000000" stroke-width="0.5" stroke-linecap="butt" stroke-linejoin="miter"/><g stroke-linejoin="miter"><path d="M232.05193,211.37526v0v0v0v0v0v0c-0.0039,-0.00677 -0.11782,-0.19703 -0.11782,-0.19712c-0.31597,-0.50721 -0.386,-1.65435 -0.35854,-2.01237l0.00243,-0.01715c0.08977,-1.51752 0.79549,-2.32748 1.21228,-2.75616c0.946,-0.97365 2.37992,-1.01326 2.37992,-1.01326l0.05081,0.98507c0,0 -0.00272,-0.28331 0.57414,-0.7786c0.57672,-0.49529 1.42957,-0.42294 1.42957,-0.42294l-0.45256,1.23443c0,0 0.26678,-0.38451 0.48541,-0.52503c0.38762,-0.24871 0.71537,-0.14183 0.71537,-0.14183l-0.09035,0.76564c0,0 0.57687,0.74783 1.01838,1.45055c0.09448,0.14993 0.20398,0.30171 0.27341,0.4763c0.2525,0.63434 0.28895,1.76492 0.00589,2.32491c-0.04889,0.09908 -0.10213,0.19528 -0.15736,0.28986c-0.01436,0.02429 -0.02879,0.04843 -0.04345,0.07228c-0.05059,0.08317 -0.10339,0.16473 -0.15891,0.24378c-0.00751,0.01053 -0.01436,0.02171 -0.02187,0.03225c-0.06296,0.08795 -0.12938,0.17267 -0.19845,0.25504c-0.01649,0.01987 -0.03387,0.03908 -0.05074,0.05881c-0.0592,0.06801 -0.12054,0.13411 -0.1835,0.1977c-0.01451,0.01487 -0.02865,0.02996 -0.0433,0.04431c-0.07577,0.07405 -0.1547,0.14464 -0.236,0.21206c-0.01811,0.0148 -0.03667,0.02893 -0.05494,0.04343c-0.06826,0.05447 -0.1388,0.10651 -0.21096,0.15612c-0.02084,0.01413 -0.04116,0.029 -0.06215,0.04284c-0.08814,0.05793 -0.17842,0.11233 -0.27165,0.16259c-0.01664,0.00906 -0.03431,0.01701 -0.05118,0.02577c-0.07967,0.04144 -0.16119,0.07957 -0.24447,0.1149c-0.35228,0.14935 -0.73481,0.24658 -1.14556,0.27617c-0.46943,0.03379 -0.89439,0.01957 -1.27825,-0.03047c-0.09491,-0.01237 -0.18725,-0.02716 -0.27717,-0.04373c-0.01708,-0.00346 -0.0341,-0.00677 -0.05103,-0.01009c-0.09116,-0.01796 -0.18064,-0.03724 -0.26649,-0.05925c-0.00051,-0.00015 -0.00118,-0.00029 -0.00176,-0.00044c-0.08601,-0.02178 -0.1687,-0.04622 -0.24948,-0.07214c-0.01414,-0.00449 -0.02865,-0.00897 -0.04271,-0.01354c-0.07761,-0.02539 -0.15324,-0.05255 -0.22613,-0.08133c-0.01282,-0.00485 -0.02519,-0.01038 -0.03792,-0.01538c-0.07195,-0.02901 -0.14212,-0.05919 -0.20942,-0.09113c-0.00258,-0.00147 -0.00545,-0.00243 -0.00795,-0.00375c-0.06892,-0.03297 -0.13475,-0.06742 -0.19874,-0.10268c-0.01194,-0.00662 -0.02379,-0.0131 -0.03542,-0.01972c-0.06156,-0.03496 -0.12121,-0.07066 -0.17806,-0.10746c-0.00869,-0.00552 -0.01694,-0.01127 -0.02555,-0.01686c-0.05397,-0.03562 -0.10618,-0.07199 -0.15611,-0.10909c-0.00515,-0.00353 -0.01082,-0.00729 -0.01576,-0.01119c-0.05206,-0.03908 -0.10125,-0.07905 -0.14867,-0.11931c-0.00921,-0.00774 -0.01827,-0.01553 -0.0271,-0.02326c-0.04624,-0.04027 -0.09071,-0.0806 -0.13254,-0.12189c-0.00478,-0.00449 -0.00913,-0.00928 -0.01384,-0.01384c-0.0394,-0.03924 -0.0768,-0.07876 -0.11215,-0.11829c-0.00494,-0.00574 -0.01054,-0.01133 -0.01554,-0.01692c-0.03623,-0.04159 -0.1145,-0.14022 -0.12054,-0.1481c-0.03151,-0.04166 -0.06156,-0.08325 -0.08873,-0.12462c-0.00169,-0.00258 -0.00331,-0.00515 -0.00485,-0.00772c-0.02607,-0.03982 -0.04978,-0.07906 -0.07195,-0.11815z" fill="#9a8479" stroke="#000000" stroke-width="0.5" stroke-linecap="butt"/><path d="M237.62081,209.16135v0v0v0v0v0v0c0,0 0.85786,0.96983 0.59277,1.97587c-0.26494,1.00574 -1.84826,1.43184 -3.06481,1.35537c-1.60821,-0.10121 -2.35378,-1.05896 -2.08913,-1.973c0.26502,-0.91403 2.39413,-1.34131 2.39413,-1.34131l-0.34963,0.6567c0,0 0.2754,-0.04254 0.49785,-0.16973c0.22239,-0.12696 0.46627,-0.29633 0.46627,-0.29633l-0.50941,0.7217c0,0 0.67281,-0.00721 1.25542,-0.24039c0.58261,-0.23289 0.80654,-0.68888 0.80654,-0.68888z" fill="#e6e7e8" stroke="#000000" stroke-width="0.5" stroke-linecap="butt"/><g stroke="#000000" stroke-width="0.5"><path d="M238.71851,208.63698c0,0 1.38082,-0.77558 1.69642,-0.11607c0.31561,0.6595 -0.24896,1.43237 -1.42714,2.13162c0,0 0.026,-1.14818 -0.26928,-2.01555v0v0v0zM238.71851,208.63698c-0.02467,-0.1015 -0.10619,-0.2956 -0.10619,-0.2956M238.95717,210.83132l0.0148,-0.1857" fill="#9a8479" stroke-linecap="round"/><path d="M238.97197,210.64554c0.00765,-0.21265 0.00736,-0.56279 -0.04058,-1.00001c-0.02762,-0.25446 -0.081,-0.51694 -0.13578,-0.74364l0.00015,0.00029c0.80881,-0.20588 1.52869,0.54166 1.52869,0.54166h0.00029c-0.40426,0.67106 -1.34629,1.18314 -1.34629,1.18314l-0.00648,0.01855v0v0v0v0v0v0z" fill="#ee4036" stroke-linecap="butt"/></g><g stroke="#000000" stroke-width="0.5"><path d="M232.23786,211.15835c-1.14688,-0.45636 -1.76572,-1.07346 -1.59238,-1.72171c0.17341,-0.64832 1.51065,-0.15339 1.51065,-0.15339c-0.12261,0.83425 0.08173,1.87511 0.08173,1.87511v0v0v0v0v0v0zM232.20289,208.9981c0,0 -0.04109,0.18894 -0.04668,0.28514M232.25068,211.14951l0.04241,0.16679" fill="#9a8479" stroke-linecap="round"/><path d="M232.24206,211.13369c0,0 -0.90963,-0.32217 -1.37133,-0.87098l0.00022,-0.00007c0,0 0.51508,-0.79008 1.25911,-0.72627l0.00007,-0.00022c-0.01237,0.21456 -0.01782,0.46158 -0.00185,0.69727c0.02695,0.4052 0.08203,0.72384 0.12239,0.91609l-0.00862,-0.01582v0v0v0v0v0v0z" fill="#ee4036" stroke-linecap="butt"/></g><path d="M236.6838,210.74402c-0.05339,0 -0.10007,-0.03864 -0.10891,-0.09304c-0.00965,-0.06021 0.03136,-0.11689 0.0916,-0.12652c0.05478,-0.00862 0.54034,-0.08436 0.71928,-0.06212c0.06053,0.00765 0.10353,0.06286 0.09624,0.12306c-0.00766,0.06065 -0.0637,0.10276 -0.12327,0.0962c-0.11259,-0.01369 -0.46251,0.02989 -0.65742,0.0608c-0.00589,0.00118 -0.01178,0.00162 -0.01752,0.00162v0v0v0v0z" fill="#231f20" stroke="none" stroke-width="0.90232" stroke-linecap="butt"/><path d="M234.89392,210.76758c-0.00692,0 -0.01392,-0.00073 -0.02113,-0.00199c-0.255,-0.04931 -0.70345,0.00089 -0.70786,0.00133c-0.05958,0.00663 -0.11517,-0.03636 -0.12224,-0.09701c-0.00692,-0.06051 0.03652,-0.11527 0.0972,-0.12219c0.01009,-0.00101 0.13522,-0.01498 0.29374,-0.02123c0.15381,-0.00606 0.33906,-0.00484 0.48113,0.02256c0.05979,0.01148 0.09912,0.06941 0.08748,0.12954c-0.01024,0.05233 -0.05655,0.08899 -0.10832,0.08899v0v0v0v0z" fill="#231f20" stroke="none" stroke-width="0.90232" stroke-linecap="butt"/><path d="M236.75795,211.26044c0,0 -0.29801,0.40181 -0.9653,0.40181c-0.66714,0 -0.84578,-0.2641 -0.84578,-0.2641" fill="none" stroke="#231f20" stroke-width="0.5" stroke-linecap="round"/></g></g><g fill-rule="nonzero"><path d="M225.67143,213.98616c0,-0.12565 0.03524,-0.30614 0.23021,-0.34688c0.28128,-0.05901 0.6031,0.22582 0.69063,0.30962c-0.00647,0.03335 0.10298,0.7062 0.10298,0.76453c0,0.19723 -0.05271,0.20505 -0.07317,0.20829c-0.19259,0.02803 -0.70584,-0.51167 -0.94143,-0.82568c-0.00324,-0.01704 -0.00922,-0.05497 -0.00922,-0.10988z" fill="#ffc93e" stroke="#603813" stroke-width="0.5" stroke-linecap="butt" stroke-linejoin="miter"/><path d="M224.89156,214.92898c-0.13962,-0.15148 -0.15954,-0.56199 -0.15954,-0.73662c0,-0.0741 0.00378,-0.12338 0.00397,-0.12491l0.00025,-0.00379c0,0 -0.00043,-0.01582 -0.00043,-0.02162c0,-0.32886 0.30278,-0.44302 0.35409,-0.46018c0.1753,0.00214 0.47831,0.08508 0.55064,0.21024c0.00733,0.01258 0.01417,0.02846 0.01417,0.0488c0,0.01784 -0.00531,0.03946 -0.02046,0.06555c-0.00702,0.01197 -0.13151,0.30614 -0.23681,0.5317l-0.07525,0.20859c-0.05632,0.18226 -0.14494,0.36465 -0.24139,0.36465c-0.07622,0.00012 -0.1381,-0.02688 -0.18923,-0.0824v0z" fill="#ffc93e" stroke="#603813" stroke-width="0.5" stroke-linecap="butt" stroke-linejoin="miter"/><path d="M228.84045,212.54491l-0.13614,-0.24023c-0.1491,-0.25965 -0.32135,-0.49738 -0.47325,-0.70664c-0.19528,-0.26954 -0.3652,-0.54843 -0.42145,-0.74548c-0.02028,-0.07098 -0.01051,-0.13871 0.01869,-0.17615c0.00281,-0.01008 0.03225,-0.02614 0.05301,-0.03042c0.25019,-0.05405 1.2858,0.5405 1.54417,0.8583c0.37851,0.46543 0.52986,1.11832 0.44545,1.44717c-0.03464,0.13437 -0.11208,0.2296 -0.22422,0.27493c-0.28665,0.1158 -0.4752,-0.09321 -0.80626,-0.68147v0z" fill="#ffc93e" stroke="#603813" stroke-width="0.5" stroke-linecap="butt" stroke-linejoin="miter"/><path d="M224.76384,207.9567c0.36765,-0.1998 -0.01178,-0.95206 -0.37888,-1.67976c-0.20064,-0.39788 -0.55845,-1.06988 -0.44216,-1.13286c0.22496,-0.12192 1.29967,1.14635 1.73535,1.65753l0.44411,0.50587c0,0 0.3175,0.3895 0.56047,0.64641c0.00428,0.00446 0.234,-0.03121 0.39269,-0.16309c0.12936,-0.10792 0.11226,-0.22868 0.15343,-0.48265c0.0378,-0.23333 0.07886,-0.65557 0.20407,-0.65771c0.18861,-0.00287 0.31261,0.77455 0.36092,1.06254l0.02669,0.15405c0.06334,0.34253 0.39379,1.37241 0.40796,1.41608c0.00452,0.01062 0.01198,0.02443 0.01198,0.02443l0.00274,0.00556l0.00378,0.00464c0.51027,0.63285 0.88976,1.40019 0.88976,2.11911c0,1.52236 -1.33448,2.59401 -3.1207,2.59401c-0.3313,0 -0.65533,-0.04642 -0.96311,-0.13768l-0.01655,-0.00476c0,0 -0.48314,-0.04062 -1.10121,0.77181c-0.12399,0.16308 -0.11294,0.31511 -0.28769,0.26832c-0.05827,-0.01558 -0.10109,-0.0584 -0.13602,-0.13615c-0.08356,-0.18543 -0.02188,-0.62478 0.08026,-0.90551l0.01607,-0.0441l-0.03689,-0.0292c-0.00904,-0.00721 -1.01149,-0.73766 -1.11276,-1.7844c-0.08827,-0.91241 0.37265,-1.4319 0.56389,-1.71739l0.10988,-0.18299c0.13871,-0.33747 -0.12235,-0.80681 -0.35274,-1.22093c-0.13755,-0.24725 -0.35958,-0.60805 -0.30943,-0.69283c0.05565,-0.09394 0.25452,0.00605 0.45535,0.10183c0.16284,0.07782 0.31951,0.18776 0.42829,0.11525c0.11312,-0.07531 0.03891,-0.26448 -0.06389,-0.52633c-0.09669,-0.24591 -0.27975,-0.63437 -0.20945,-0.79471c0.01936,-0.0441 0.05332,-0.07507 0.10383,-0.09467c0.18679,-0.07232 0.45382,0.24231 0.66999,0.4884c0.26368,0.30046 0.56273,0.64091 0.90997,0.45187v0z" fill="#ffc93e" stroke="#603813" stroke-width="0.5" stroke-linecap="round" stroke-linejoin="round"/><g stroke="none" stroke-width="0.66342" stroke-linecap="butt" stroke-linejoin="miter"><path d="M225.07211,211.54832v0c0,-0.27473 0.22269,-0.49755 0.4975,-0.49767c0.27468,0 0.49737,0.22294 0.49737,0.49767c0,0.27456 -0.22264,0.4972 -0.49737,0.4972c-0.27474,0 -0.4975,-0.22264 -0.4975,-0.4972z" fill="#ffffff"/><path d="M225.63656,211.18477c0.09656,0 0.18409,0.03922 0.24743,0.10262c0.0634,0.06334 0.10261,0.15086 0.10261,0.24743c0,0.09657 -0.03921,0.1841 -0.10261,0.24743c-0.06334,0.06341 -0.15087,0.10262 -0.24743,0.10262c-0.09657,0 -0.1841,-0.03921 -0.24743,-0.10262c-0.06341,-0.06333 -0.10262,-0.15086 -0.10262,-0.24743c0,-0.09657 0.03921,-0.18409 0.10262,-0.24743c0.06333,-0.0634 0.15086,-0.10262 0.24743,-0.10262z" fill="#603813"/></g><g stroke="none" stroke-width="0.66342" stroke-linecap="butt" stroke-linejoin="miter"><path d="M227.46841,211.54832v0c0,-0.27473 0.22269,-0.49755 0.49755,-0.49767c0.27468,0 0.49738,0.22294 0.49738,0.49767c0,0.27456 -0.22283,0.4972 -0.49738,0.4972c-0.27486,0 -0.49755,-0.22264 -0.49755,-0.4972z" fill="#ffffff"/><path d="M227.68274,211.53483v0c0,-0.19326 0.15661,-0.35005 0.34999,-0.35005c0.19325,0 0.35005,0.15686 0.35005,0.35005c0,0.19344 -0.15679,0.34992 -0.35005,0.34992c-0.19338,0 -0.34999,-0.15661 -0.34999,-0.34992z" fill="#603813"/></g><path d="M221.63746,213.46862c-0.10195,-0.06511 -0.1607,-0.17261 -0.17017,-0.31127c-0.02303,-0.33905 0.2453,-0.95309 0.70235,-1.34144c0.31212,-0.26521 1.43905,-0.66028 1.67506,-0.56152c0.01948,0.00818 0.04562,0.0292 0.04642,0.03983c0.02205,0.04202 0.01911,0.11025 -0.01381,0.17634c-0.09125,0.18348 -0.3093,0.42677 -0.5507,0.65576c-0.18764,0.17859 -0.40026,0.38028 -0.59418,0.60853l-0.17787,0.21073c-0.43288,0.51809 -0.65673,0.68947 -0.91711,0.52303v0z" fill="#ffc93e" stroke="#603813" stroke-width="0.5" stroke-linecap="butt" stroke-linejoin="miter"/><path d="M227.2302,213.11387c0,0 -0.45279,0.00036 -0.76986,-0.27138" fill="none" stroke="#603813" stroke-width="0.5" stroke-linecap="round" stroke-linejoin="round"/></g><g fill-rule="nonzero"><path d="M246.27703,212.88728v0v0v0v0v0v0c0.17944,0.33336 -0.18616,0.83153 -0.21649,0.87532c-0.05236,0.05109 0,-0.00001 -0.00088,0.00124c0,0 -0.26274,0.28367 -0.43652,0.18747c-0.07401,-0.04084 -0.10744,-0.11327 -0.10914,-0.20815c-0.03248,-0.01038 -0.07739,-0.03239 -0.09749,-0.07994c-0.0335,-0.07906 0.1352,-0.14014 0.1352,-0.14014v0.00117c0.00773,-0.02444 0.01605,-0.04953 0.02614,-0.07559c0.057,-0.1475 0.19749,-0.43589 0.19749,-0.43589c0,0 0.31995,-0.46313 0.50169,-0.1255z" fill="#9a8479" stroke="#000000" stroke-width="0.5" stroke-linecap="round" stroke-linejoin="round"/><path d="M248.30268,213.37977v0v0v0v0v0v0c0,0 0.1687,0.06124 0.13497,0.14022c-0.01996,0.04792 -0.06502,0.06985 -0.09734,0.08038c-0.0017,0.09444 -0.03506,0.16716 -0.10913,0.20801c-0.1131,0.06249 -0.25508,-0.02981 -0.34079,-0.10209c-0.04035,-0.02716 -0.08564,-0.05668 -0.12577,-0.07979c-0.10126,-0.05837 -0.34212,-0.454 -0.29609,-0.67637c0.04602,-0.22236 0.53298,0 0.53298,0c0.11333,0.10894 0.23586,0.25313 0.2751,0.35493c0.00994,0.02613 0.01842,0.05145 0.02607,0.07618v-0.00148z" fill="#9a8479" stroke="#000000" stroke-width="0.5" stroke-linecap="round" stroke-linejoin="round"/><path d="M246.47187,213.73146v0v0v0v0v0v0c0.31825,0.12123 0.44388,0.18725 0.39903,0.44082c-0.03365,0.19012 0.12865,0.60762 0.12865,0.60762c0,0 0.07879,0.0226 0.05176,0.08612c-0.02702,0.06425 -0.22245,0.10695 -0.47576,0.09348c-0.25323,-0.0134 -0.45221,-0.01045 -0.48092,-0.07126c-0.0288,-0.0605 0.02401,-0.08869 0.02401,-0.08869c0,0 0.00979,-0.14346 0.01009,-0.29766c0,-0.15421 -0.02452,-0.57612 -0.02452,-0.57612c0,0 0.04941,-0.31555 0.36766,-0.19432z" fill="#9a8479" stroke="#000000" stroke-width="0.5" stroke-linecap="butt" stroke-linejoin="miter"/><path d="M247.29365,213.78776v0v0v0v0v0v0c0.23932,-0.10923 0.38482,-0.12734 0.44616,0.00015c0,0 0.11996,0.22406 0.18033,0.45746c0.06024,0.23326 0.10339,0.50155 0.10339,0.50155c0,0 0.07998,0.04254 0.07938,0.0845c-0.00044,0.04196 -0.06929,0.12403 -0.43231,0.13426c-0.36289,0.00978 -0.49219,-0.04976 -0.50338,-0.10467c-0.01149,-0.05483 0.03107,-0.05969 0.03107,-0.05969c0,0 0.00501,-0.05955 0,-0.2036c-0.00493,-0.14404 -0.06472,-0.40932 -0.06472,-0.40932c0,0 -0.07924,-0.2914 0.16009,-0.40064z" fill="#9a8479" stroke="#000000" stroke-width="0.5" stroke-linecap="butt" stroke-linejoin="miter"/><path d="M246.74705,212.59197v0v0v0v0v0v0c0.66141,-0.05115 0.91404,0.3324 0.91389,0.33233c0.05383,0.09907 0.12069,0.23884 0.14845,0.36648c0.00765,0.03526 0.01237,0.07493 0.01355,0.11748c0,0 -0.0039,0.14779 -0.01826,0.19291c-0.06023,0.18902 -0.15832,0.39593 -0.39292,0.48949c-0.36833,0.1475 -0.76037,0.12939 -1.16773,-0.06441c-0.13747,-0.06521 -0.21892,-0.17636 -0.26288,-0.30289c-0.03137,-0.09106 -0.04477,-0.20977 -0.04477,-0.20977c-0.01929,-0.19749 0.01524,-0.39026 0.03365,-0.4741c0,0 0.11569,-0.39637 0.77701,-0.44752z" fill="#9a8479" stroke="#000000" stroke-width="0.5" stroke-linecap="butt" stroke-linejoin="miter"/><g stroke-linejoin="miter"><path d="M243.32466,211.46617v0v0v0v0v0v0c-0.0039,-0.00677 -0.11782,-0.19703 -0.11782,-0.19711c-0.31597,-0.50721 -0.386,-1.65435 -0.35853,-2.01237l0.00243,-0.01715c0.08976,-1.51753 0.79549,-2.32748 1.21228,-2.75616c0.946,-0.97365 2.37992,-1.01326 2.37992,-1.01326l0.0508,0.98507c0,0 -0.00272,-0.28331 0.57414,-0.7786c0.57672,-0.49529 1.42956,-0.42294 1.42956,-0.42294l-0.45256,1.23443c0,0 0.26677,-0.38452 0.48541,-0.52503c0.38762,-0.24871 0.71537,-0.14183 0.71537,-0.14183l-0.09035,0.76565c0,0 0.57686,0.74783 1.01838,1.45055c0.09448,0.14993 0.20398,0.3017 0.27341,0.47629c0.2525,0.63434 0.28894,1.76492 0.00589,2.32491c-0.04889,0.09907 -0.10213,0.19528 -0.15735,0.28986c-0.01436,0.02429 -0.0288,0.04843 -0.04345,0.07228c-0.05059,0.08318 -0.10339,0.16472 -0.15891,0.24377c-0.00751,0.01053 -0.01436,0.02171 -0.02186,0.03224c-0.06296,0.08795 -0.12938,0.17267 -0.19845,0.25504c-0.01649,0.01988 -0.03387,0.03908 -0.05074,0.05881c-0.0592,0.06802 -0.12054,0.13411 -0.18349,0.19771c-0.01451,0.01487 -0.02865,0.02996 -0.04331,0.04431c-0.07577,0.07405 -0.1547,0.14464 -0.236,0.21206c-0.01811,0.0148 -0.03666,0.02893 -0.05494,0.04343c-0.06826,0.05447 -0.13881,0.10651 -0.21097,0.15612c-0.02084,0.01413 -0.04116,0.029 -0.06214,0.04284c-0.08814,0.05793 -0.17843,0.11233 -0.27165,0.16259c-0.01664,0.00905 -0.03431,0.01701 -0.05118,0.02577c-0.07968,0.04144 -0.1612,0.07957 -0.24448,0.1149c-0.35228,0.14935 -0.73481,0.24657 -1.14556,0.27617c-0.46943,0.03378 -0.89439,0.01957 -1.27825,-0.03047c-0.09491,-0.01237 -0.18725,-0.02716 -0.27716,-0.04372c-0.01709,-0.00346 -0.0341,-0.00678 -0.05103,-0.01009c-0.09116,-0.01796 -0.18063,-0.03724 -0.26649,-0.05925c-0.00052,-0.00015 -0.00118,-0.00029 -0.00177,-0.00044c-0.08602,-0.02178 -0.16871,-0.04622 -0.24948,-0.07214c-0.01414,-0.00448 -0.02865,-0.00897 -0.04271,-0.01354c-0.07761,-0.02539 -0.15324,-0.05256 -0.22613,-0.08133c-0.01282,-0.00485 -0.02519,-0.01038 -0.03793,-0.01538c-0.07195,-0.02901 -0.14211,-0.05918 -0.20942,-0.09113c-0.00258,-0.00147 -0.00545,-0.00243 -0.00796,-0.00375c-0.06892,-0.03297 -0.13475,-0.06742 -0.19873,-0.10268c-0.01193,-0.00662 -0.02379,-0.0131 -0.03542,-0.01972c-0.06156,-0.03496 -0.12121,-0.07066 -0.17806,-0.10746c-0.00869,-0.00553 -0.01694,-0.01127 -0.02555,-0.01686c-0.05398,-0.03563 -0.10619,-0.07199 -0.15611,-0.10909c-0.00515,-0.00353 -0.01082,-0.00729 -0.01575,-0.01119c-0.05206,-0.03909 -0.10125,-0.07905 -0.14867,-0.11931c-0.00921,-0.00773 -0.01827,-0.01554 -0.02711,-0.02327c-0.04624,-0.04027 -0.09071,-0.08059 -0.13254,-0.12188c-0.00478,-0.00449 -0.00913,-0.00928 -0.01384,-0.01384c-0.0394,-0.03923 -0.0768,-0.07876 -0.11214,-0.11829c-0.00493,-0.00573 -0.01054,-0.01133 -0.01555,-0.01692c-0.03623,-0.04158 -0.1145,-0.14022 -0.12054,-0.1481c-0.03151,-0.04166 -0.06156,-0.08325 -0.08873,-0.12462c-0.00169,-0.00258 -0.00331,-0.00516 -0.00485,-0.00772c-0.02607,-0.03983 -0.04978,-0.07906 -0.07195,-0.11814z" fill="#9a8479" stroke="#000000" stroke-width="0.5" stroke-linecap="butt"/><path d="M248.89354,209.25226v0v0v0v0v0v0c0,0 0.85786,0.96983 0.59277,1.97587c-0.26494,1.00574 -1.84826,1.43184 -3.06481,1.35537c-1.60822,-0.1012 -2.35378,-1.05896 -2.08913,-1.973c0.26502,-0.91404 2.39413,-1.34131 2.39413,-1.34131l-0.34963,0.65671c0,0 0.2754,-0.04254 0.49785,-0.16974c0.22239,-0.12697 0.46627,-0.29633 0.46627,-0.29633l-0.50942,0.7217c0,0 0.67281,-0.00721 1.25542,-0.24039c0.58261,-0.23289 0.80654,-0.68888 0.80654,-0.68888z" fill="#e6e7e8" stroke="#000000" stroke-width="0.5" stroke-linecap="butt"/><g stroke="#000000" stroke-width="0.5"><path d="M249.99124,208.72789c0,0 1.38081,-0.77559 1.69642,-0.11608c0.31561,0.6595 -0.24895,1.43237 -1.42713,2.13163c0,0 0.02599,-1.14817 -0.26928,-2.01555v0v0v0v0v0v0zM249.99124,208.72789c-0.02468,-0.1015 -0.10619,-0.2956 -0.10619,-0.2956M250.22989,210.92222l0.0148,-0.1857" fill="#9a8479" stroke-linecap="round"/><path d="M250.24469,210.73645c0.00765,-0.21265 0.00736,-0.56279 -0.04058,-1.00001c-0.02762,-0.25446 -0.08101,-0.51694 -0.13578,-0.74364l0.00015,0.00029c0.80882,-0.20588 1.52869,0.54166 1.52869,0.54166h0.00029c-0.40426,0.67106 -1.34629,1.18314 -1.34629,1.18314l-0.00648,0.01855v0v0v0v0v0v0z" fill="#ee4036" stroke-linecap="butt"/></g><g stroke="#000000" stroke-width="0.5"><path d="M243.51059,211.24926c-1.14688,-0.45636 -1.76571,-1.07347 -1.59238,-1.72172c0.17342,-0.64831 1.51065,-0.15339 1.51065,-0.15339c-0.1226,0.83425 0.08173,1.87511 0.08173,1.87511v0v0v0zM243.47561,209.08901c0,0 -0.04109,0.18894 -0.04668,0.28515M243.52341,211.24042l0.04242,0.16679" fill="#9a8479" stroke-linecap="round"/><path d="M243.51479,211.2246c0,0 -0.90963,-0.32218 -1.37133,-0.87098l0.00023,-0.00007c0,0 0.51508,-0.79008 1.25911,-0.72627l0.00008,-0.00023c-0.01237,0.21456 -0.01782,0.46158 -0.00185,0.69727c0.02695,0.4052 0.08203,0.72384 0.12238,0.9161l-0.00861,-0.01582v0v0v0v0v0v0z" fill="#ee4036" stroke-linecap="butt"/></g><path d="M247.95652,210.83493c-0.05338,0 -0.10008,-0.03865 -0.10891,-0.09304c-0.00965,-0.0602 0.03137,-0.11688 0.09161,-0.12652c0.05478,-0.00861 0.54033,-0.08436 0.71927,-0.06213c0.06053,0.00765 0.10353,0.06286 0.09625,0.12306c-0.00766,0.06065 -0.06369,0.10276 -0.12327,0.0962c-0.11258,-0.01369 -0.46251,0.02989 -0.65742,0.0608c-0.00589,0.00117 -0.01178,0.00162 -0.01753,0.00162v0v0v0v0v0v0v0z" fill="#231f20" stroke="none" stroke-width="0.90232" stroke-linecap="butt"/><path d="M246.16665,210.85848c-0.00692,0 -0.01391,-0.00074 -0.02113,-0.00199c-0.25501,-0.04932 -0.70345,0.00089 -0.70786,0.00133c-0.05957,0.00663 -0.11517,-0.03637 -0.12224,-0.09701c-0.00692,-0.06051 0.03652,-0.11527 0.09719,-0.12219c0.01009,-0.001 0.13523,-0.01498 0.29374,-0.02123c0.15381,-0.00606 0.33906,-0.00485 0.48113,0.02255c0.05979,0.01148 0.09912,0.06941 0.08748,0.12955c-0.01024,0.05233 -0.05655,0.08899 -0.10832,0.08899v0v0v0v0v0v0v0z" fill="#231f20" stroke="none" stroke-width="0.90232" stroke-linecap="butt"/><path d="M248.03067,211.35134c0,0 -0.29801,0.40181 -0.9653,0.40181c-0.66714,0 -0.84578,-0.26409 -0.84578,-0.26409" fill="none" stroke="#231f20" stroke-width="0.5" stroke-linecap="round"/></g></g><g fill-rule="nonzero" stroke="none" stroke-linecap="butt" stroke-linejoin="miter"><g><path d="M238.40765,202.0918v-7.81818h14.90909v7.81819z" fill="#66c0ff" stroke-width="NaN"/><path d="M238.38931,198.64844v-0.68935h14.90713v0.68935z" fill="#07e000" stroke-width="0"/></g><g fill="#ffffff" stroke-width="0"><path d="M239.95311,202.08705l3.10206,-3.91254l-3.10206,-3.9009h0.90909l3.10206,3.85781l-3.10206,3.95562z"/><path d="M242.54039,202.21854l3.10206,-3.91254l-3.10206,-3.9009h0.90909l3.10206,3.85782l-3.10206,3.95562z"/><path d="M252.4089,202.13461l-3.10206,-3.95562l3.10206,-3.85782h0.90909l-3.10206,3.9009l3.10206,3.91254z" data-paper-data="{&quot;index&quot;:null}"/></g></g><g fill-rule="nonzero" stroke="none" stroke-linecap="butt" stroke-linejoin="miter"><g><path d="M254.91113,202.26637v-7.81818h14.90909v7.81819z" fill="#66c0ff" stroke-width="NaN"/><path d="M254.89278,198.82301v-0.68935h14.90712v0.68935z" fill="#07e000" stroke-width="0"/></g><g fill="#ffffff" stroke-width="0"><path d="M256.45658,202.26162l3.10206,-3.91254l-3.10206,-3.9009h0.90909l3.10206,3.85782l-3.10206,3.95562z"/><path d="M259.04387,202.39311l3.10206,-3.91254l-3.10206,-3.9009h0.90909l3.10206,3.85781l-3.10206,3.95562z"/><path d="M268.91238,202.30918l-3.10206,-3.95562l3.10206,-3.85781h0.90909l-3.10206,3.9009l3.10206,3.91254z" data-paper-data="{&quot;index&quot;:null}"/></g></g><g fill-rule="nonzero" stroke-linecap="butt" stroke-linejoin="miter"><path d="M214.72286,202.69v-8.41818h19.21818v8.41818z" fill="#7ab668" stroke="#91d87b" stroke-width="1.5"/><g fill="#d95900" stroke="none" stroke-width="0"><path d="M221.2865,201.45348c0,0.64275 -0.91578,1.16379 -2.04545,1.16379c-1.12967,0 -2.04545,-0.52105 -2.04545,-1.16379c0,-0.64275 0.78591,-2.43339 1.91558,-2.43339c1.12967,0 2.17532,1.79064 2.17532,2.43339z"/><path d="M226.92286,201.27166c0,0.64274 -0.91578,1.16379 -2.04546,1.16379c-1.12967,0 -2.04546,-0.52105 -2.04546,-1.16379c0,-0.64274 0.78591,-2.43339 1.91558,-2.43339c1.12967,0 2.17533,1.79064 2.17533,2.43339z"/><path d="M232.55922,201.18075c0,0.64274 -0.91578,1.16379 -2.04546,1.16379c-1.12967,0 -2.04545,-0.52104 -2.04545,-1.16379c0,-0.64274 0.78591,-2.43339 1.91558,-2.43339c1.12967,0 2.17532,1.79064 2.17532,2.43339z"/><path d="M221.2865,197.18075c0,0.64274 -0.91578,1.16379 -2.04546,1.16379c-1.12967,0 -2.04546,-0.52104 -2.04546,-1.16379c0,-0.64274 0.78591,-2.43339 1.91558,-2.43339c1.12967,0 2.17533,1.79064 2.17533,2.43339z"/><path d="M226.92286,197.18075c0,0.64274 -0.91578,1.16379 -2.04546,1.16379c-1.12967,0 -2.04545,-0.52105 -2.04545,-1.16379c0,-0.64274 0.78591,-2.43338 1.91558,-2.43338c1.12967,0 2.17532,1.79064 2.17532,2.43338z"/><path d="M232.55922,197.27166c0,0.64274 -0.91578,1.16379 -2.04546,1.16379c-1.12967,0 -2.04546,-0.52104 -2.04546,-1.16379c0,-0.64274 0.78591,-2.43339 1.91558,-2.43339c1.12967,0 2.17533,1.79064 2.17533,2.43339z"/></g></g></g></g></svg>