<svg version="1.1" xmlns="http://www.w3.org/2000/svg" xmlns:xlink="http://www.w3.org/1999/xlink" width="99.66666" height="79" viewBox="0,0,99.66666,79"><g transform="translate(-190.16667,-140.5)"><g data-paper-data="{&quot;isPaintingLayer&quot;:true}" fill-rule="nonzero" stroke="none" stroke-linejoin="miter" stroke-miterlimit="10" stroke-dasharray="" stroke-dashoffset="0" style="mix-blend-mode: normal"><path d="M190.16667,216.25v-75.75h99.66666v75.75z" fill="#ffefc5" stroke-width="0" stroke-linecap="butt"/><path d="M190.16667,219.5v-3.75h99.66666v3.75z" fill="#a0a0a0" stroke-width="0" stroke-linecap="butt"/><path d="M198.125,189.125v-40.75h83.75v40.75z" fill="#baf6ff" stroke-width="0" stroke-linecap="butt"/><g stroke-width="0" stroke-linecap="round"><path d="M210.13334,188.82857l24.9216,-32.69847h12.49556l22.95784,32.69848" fill="#00baff"/><path d="M226.51426,167.32577l8.51999,-11.21342h12.52678l7.86971,11.21342" fill="#ffffff"/></g><path d="M198.18046,185.21667c0,0 -0.2375,-2.26857 0.39244,-2.63599c3.53133,-2.05969 10.88559,1.50447 14.88266,1.46932c3.17163,-0.02788 2.74965,-1.82675 6.06058,-1.84483c1.26503,-0.0069 7.88956,-2.9811 9.16614,-2.9811c3.7853,0 4.59954,1.73013 7.25501,2.76845c4.1486,1.62215 3.81653,-1.9846 8.43024,-1.5c1.42759,0.14995 8.79081,-2.64116 10.10978,-2.97091c2.32927,-0.58231 3.92103,5.84974 6.11914,5.86171c1.2106,0.0066 4.61882,0.93698 5.91338,0.66667c3.40154,-0.71026 3.91792,-2.99572 7.23515,-0.44652c0.41593,0.31963 8.10218,-3.31277 8.16972,1.54898c0.03436,2.47307 -0.12898,4.01657 -0.12898,4.01657l-83.61549,-0.0392z" fill="#56d856" stroke-width="0.5" stroke-linecap="butt"/><path d="M198.05546,187.15608c0,0 -0.2375,-1.37062 0.39244,-1.59261c3.53133,-1.24443 10.88559,0.90897 14.88266,0.88774c3.17163,-0.01684 2.74965,-1.10369 6.06058,-1.11461c1.26503,-0.00417 7.88956,-1.80113 9.16614,-1.80113c3.7853,0 4.59954,1.04531 7.25501,1.67265c4.1486,0.98007 3.81653,-1.19906 8.43024,-0.90627c1.42759,0.0906 8.79081,-1.59574 10.10978,-1.79497c2.32927,-0.35182 3.92103,3.53431 6.11914,3.54154c1.2106,0.00399 4.61882,0.56611 5.91338,0.40279c3.40154,-0.42913 3.91792,-1.80997 7.23515,-0.26978c0.41593,0.19312 8.10218,-2.00152 8.16972,0.93587c0.03436,1.49418 -0.12898,2.42674 -0.12898,2.42674l-83.61549,-0.02369z" fill="#5fed5f" stroke-width="0.5" stroke-linecap="butt"/><path d="M204.91123,201.30283c0,0.41576 -0.05971,0.81797 -0.17126,1.19896c-0.53604,1.83087 -2.26906,3.1716 -4.32417,3.1716c-2.48276,0 -4.49543,-1.95677 -4.49543,-4.37056c0,-2.41379 2.01267,-4.37056 4.49543,-4.37056c2.48276,0 4.49543,1.95677 4.49543,4.37056z" fill="#cacaca" stroke-width="0" stroke-linecap="butt"/><path d="M275.51378,195.94136c2.48276,0 4.49543,1.95677 4.49543,4.37056c0,2.41379 -2.01267,4.37056 -4.49543,4.37056c-2.48276,0 -4.49543,-1.95677 -4.49543,-4.37056c0,-2.41379 2.01267,-4.37056 4.49543,-4.37056z" fill="#dfdfdf" stroke-width="0" stroke-linecap="butt"/><g stroke-width="0" stroke-linecap="butt"><path d="M231.80571,210.54332v-15.04703h43.08122v15.04703z" fill="#00dbfb"/><g><g><path d="M201.94886,210.44332v-15.04703h43.08122v15.04703z" fill="#00dbfb"/><g><path d="M216.80876,211.75449c0,2.41379 -2.01267,4.37056 -4.49543,4.37056c-2.48276,0 -4.49543,-1.95677 -4.49543,-4.37056c0,-2.41379 2.01267,-4.37056 4.49543,-4.37056c2.48276,0 4.49543,1.95677 4.49543,4.37056z" fill="#cacaca"/><path d="M222.42805,212.00424c0,2.41379 -2.01267,4.37056 -4.49543,4.37056c-2.48276,0 -4.49544,-1.95677 -4.49544,-4.37056c0,-2.41379 2.01268,-4.37056 4.49544,-4.37056c2.48276,0 4.49543,1.95677 4.49543,4.37056z" fill="#a4a4a4"/><path d="M229.42094,212.12911c0,2.41379 -2.01268,4.37056 -4.49544,4.37056c-2.48276,0 -4.49543,-1.95677 -4.49543,-4.37056c0,-2.41379 2.01267,-4.37055 4.49543,-4.37055c2.48276,0 4.49544,1.95676 4.49544,4.37055z" fill="#cacaca"/><path d="M235.91434,212.50373c0,2.41379 -2.01267,4.37056 -4.49543,4.37056c-2.48276,0 -4.49543,-1.95677 -4.49543,-4.37056c0,-2.41379 2.01267,-4.37056 4.49543,-4.37056c2.48276,0 4.49543,1.95677 4.49543,4.37056z" fill="#cacaca"/><path d="M242.90724,212.00424c0,2.41379 -2.01268,4.37056 -4.49544,4.37056c-2.48276,0 -4.49543,-1.95677 -4.49543,-4.37056c0,-2.41379 2.01267,-4.37056 4.49543,-4.37056c2.48276,0 4.49544,1.95677 4.49544,4.37056z" fill="#dfdfdf"/><path d="M210.31536,210.75551c0,2.41379 -2.01267,4.37055 -4.49543,4.37055c-2.48276,0 -4.49543,-1.95676 -4.49543,-4.37055c0,-2.41379 2.01267,-4.37056 4.49543,-4.37056c2.48276,0 4.49543,1.95677 4.49543,4.37056z" fill="#cacaca"/><path d="M204.19658,205.38596c0,2.41379 -2.01268,4.37056 -4.49544,4.37056c-2.48276,0 -4.49543,-1.95677 -4.49543,-4.37056c0,-2.41379 2.01267,-4.37056 4.49543,-4.37056c2.48276,0 4.49544,1.95677 4.49544,4.37056z" fill="#a4a4a4"/><path d="M207.56815,196.30282c0,0.41577 -0.05971,0.81798 -0.17126,1.19896c-0.53604,1.83087 -2.26906,3.1716 -4.32417,3.1716c-2.48276,0 -4.49543,-1.95677 -4.49543,-4.37056c0,-2.41379 2.01267,-4.37056 4.49543,-4.37056c2.48276,0 4.49543,1.95677 4.49543,4.37056z" fill="#cacaca"/><path d="M214.3113,194.92922c0,2.41379 -2.01268,4.37056 -4.49544,4.37056c-2.48276,0 -4.49543,-1.95677 -4.49543,-4.37056c0,-2.41379 2.01267,-4.37055 4.49543,-4.37055c2.48276,0 4.49544,1.95676 4.49544,4.37055z" fill="#cacaca"/><path d="M219.43109,194.80435c0,2.41379 -2.01267,4.37055 -4.49543,4.37055c-2.48276,0 -4.49543,-1.95676 -4.49543,-4.37055c0,-2.41379 2.01267,-4.37056 4.49543,-4.37056c2.48276,0 4.49543,1.95677 4.49543,4.37056z" fill="#dddddd"/><path d="M230.66967,193.55562c0,2.41379 -2.01267,4.37055 -4.49543,4.37055c-2.48276,0 -4.49544,-1.95676 -4.49544,-4.37055c0,-2.41379 2.01268,-4.37056 4.49544,-4.37056c1.1177,0 2.14013,0.39657 2.92654,1.05288c0.96046,0.80156 1.56889,1.99054 1.56889,3.31768z" fill="#cacaca"/><path d="M213.18744,211.255c0,2.41379 -2.01267,4.37056 -4.49543,4.37056c-2.48276,0 -4.49543,-1.95677 -4.49543,-4.37056c0,-2.41379 2.01267,-4.37056 4.49543,-4.37056c2.48276,0 4.49543,1.95677 4.49543,4.37056z" fill="#dfdfdf"/><path d="M206.81891,210.63063c0,2.41379 -2.01267,4.37056 -4.49543,4.37056c-2.48276,0 -4.49543,-1.95677 -4.49543,-4.37056c0,-2.41379 2.01267,-4.37056 4.49543,-4.37056c2.48276,0 4.49543,1.95677 4.49543,4.37056z" fill="#cacaca"/><path d="M234.04125,193.55562c0,2.41379 -2.01268,4.37055 -4.49544,4.37055c-2.48276,0 -4.49543,-1.95676 -4.49543,-4.37055c0,-2.41379 2.01267,-4.37056 4.49543,-4.37056c2.48276,0 4.49544,1.95677 4.49544,4.37056z" fill="#cacaca"/><path d="M241.03414,193.68049c0,2.41379 -2.01267,4.37056 -4.49543,4.37056c-2.48276,0 -4.49543,-1.95677 -4.49543,-4.37056c0,-2.41379 2.01267,-4.37056 4.49543,-4.37056c2.48276,0 4.49543,1.95677 4.49543,4.37056z" fill="#cacaca"/><path d="M237.66257,193.181c0,2.41379 -2.01268,4.37055 -4.49544,4.37055c-2.48276,0 -4.49543,-1.95676 -4.49543,-4.37055c0,-2.41379 2.01267,-4.37056 4.49543,-4.37056c1.34345,0 2.54926,0.57294 3.37302,1.48121c0.69859,0.77026 1.12242,1.78168 1.12242,2.88935z" fill="#dddddd"/><path d="M224.67576,194.05511c0,2.41379 -2.01267,4.37056 -4.49543,4.37056c-2.48276,0 -4.49543,-1.95677 -4.49543,-4.37056c0,-2.41379 2.01267,-4.37056 4.49543,-4.37056c2.48276,0 4.49543,1.95677 4.49543,4.37056z" fill="#dddddd"/></g></g><g><path d="M264.52246,207.48393c2.48276,0 4.49543,1.95677 4.49543,4.37056c0,2.41379 -2.01267,4.37055 -4.49543,4.37055c-2.48276,0 -4.49543,-1.95676 -4.49543,-4.37055c0,-2.41379 2.01267,-4.37056 4.49543,-4.37056z" fill="#cacaca"/><path d="M258.90317,207.73368c2.48276,0 4.49544,1.95677 4.49544,4.37056c0,2.41379 -2.01268,4.37056 -4.49544,4.37056c-2.48276,0 -4.49543,-1.95677 -4.49543,-4.37056c0,-2.41379 2.01267,-4.37056 4.49543,-4.37056z" fill="#cacaca"/><path d="M251.91028,207.85855c2.48276,0 4.49543,1.95676 4.49543,4.37055c0,2.41379 -2.01267,4.37056 -4.49543,4.37056c-2.48276,0 -4.49543,-1.95677 -4.49543,-4.37056c0,-2.41379 2.01268,-4.37055 4.49543,-4.37055z" fill="#dfdfdf"/><path d="M245.41688,208.23317c2.48276,0 4.49543,1.95676 4.49543,4.37055c0,2.41379 -2.01268,4.37056 -4.49543,4.37056c-2.48276,0 -4.49543,-1.95677 -4.49543,-4.37056c0,-2.41379 2.01267,-4.37055 4.49543,-4.37055z" fill="#cacaca"/><path d="M238.42399,207.73368c2.48276,0 4.49543,1.95677 4.49543,4.37056c0,2.41379 -2.01267,4.37056 -4.49543,4.37056c-2.48276,0 -4.49543,-1.95677 -4.49543,-4.37056c0,-2.41379 2.01267,-4.37056 4.49543,-4.37056z" fill="#cacaca"/><path d="M271.01586,206.48495c2.48276,0 4.49544,1.95677 4.49544,4.37056c0,2.41379 -2.01268,4.37055 -4.49544,4.37055c-2.48276,0 -4.49543,-1.95676 -4.49543,-4.37055c0,-2.41379 2.01267,-4.37056 4.49543,-4.37056z" fill="#cacaca"/><path d="M277.13465,201.1154c2.48276,0 4.49543,1.95677 4.49543,4.37056c0,2.41379 -2.01267,4.37056 -4.49543,4.37056c-2.48276,0 -4.49544,-1.95677 -4.49544,-4.37056c0,-2.41379 2.01268,-4.37056 4.49544,-4.37056z" fill="#a4a4a4"/><path d="M273.76307,192.03226c2.48276,0 4.49543,1.95677 4.49543,4.37056c0,2.41379 -2.01267,4.37056 -4.49543,4.37056c-2.48276,0 -4.49543,-1.95677 -4.49543,-4.37056c0,-2.41379 2.01267,-4.37056 4.49543,-4.37056z" fill="#cacaca"/><path d="M267.01993,190.65866c2.48276,0 4.49543,1.95677 4.49543,4.37056c0,2.41379 -2.01267,4.37056 -4.49543,4.37056c-2.48276,0 -4.49543,-1.95677 -4.49543,-4.37056c0,-2.41379 2.01267,-4.37056 4.49543,-4.37056z" fill="#cacaca"/><path d="M261.90013,190.53379c2.48276,0 4.49543,1.95677 4.49543,4.37056c0,2.41379 -2.01267,4.37055 -4.49543,4.37055c-2.48276,0 -4.49543,-1.95676 -4.49543,-4.37055c0,-2.41379 2.01267,-4.37056 4.49543,-4.37056z" fill="#dddddd"/><path d="M250.66155,189.28506c2.48276,0 4.49543,1.95677 4.49543,4.37056c0,2.41379 -2.01268,4.37055 -4.49543,4.37055c-2.48276,0 -4.49543,-1.95676 -4.49543,-4.37055c0,-2.41379 2.01267,-4.37056 4.49543,-4.37056z" fill="#cacaca"/><path d="M268.14378,206.98444c2.48276,0 4.49543,1.95677 4.49543,4.37056c0,2.41379 -2.01267,4.37056 -4.49543,4.37056c-2.48276,0 -4.49543,-1.95677 -4.49543,-4.37056c0,-2.41379 2.01267,-4.37056 4.49543,-4.37056z" fill="#dfdfdf"/><path d="M274.51231,206.36007c2.48276,0 4.49543,1.95677 4.49543,4.37056c0,2.41379 -2.01267,4.37056 -4.49543,4.37056c-2.48276,0 -4.49544,-1.95677 -4.49544,-4.37056c0,-2.41379 2.01268,-4.37056 4.49544,-4.37056z" fill="#cacaca"/><path d="M247.28998,189.28506c2.48276,0 4.49543,1.95677 4.49543,4.37056c0,2.41379 -2.01267,4.37055 -4.49543,4.37055c-2.48276,0 -4.49543,-1.95676 -4.49543,-4.37055c0,-2.41379 2.01268,-4.37056 4.49543,-4.37056z" fill="#cacaca"/><path d="M240.29708,189.40993c2.48276,0 4.49543,1.95677 4.49543,4.37056c0,2.41379 -2.01267,4.37056 -4.49543,4.37056c-2.48276,0 -4.49543,-1.95677 -4.49543,-4.37056c0,-2.41379 2.01267,-4.37056 4.49543,-4.37056z" fill="#cacaca"/><path d="M243.66866,188.91044c2.48276,0 4.49543,1.95677 4.49543,4.37056c0,2.41379 -2.01267,4.37055 -4.49543,4.37055c-2.48276,0 -4.49544,-1.95676 -4.49544,-4.37055c0,-2.41379 2.01268,-4.37056 4.49544,-4.37056z" fill="#dddddd"/><path d="M256.65546,189.78455c2.48276,0 4.49543,1.95677 4.49543,4.37056c0,0.78547 -0.21313,1.52255 -0.58622,2.15956c-0.77345,1.32053 -2.23436,2.211 -3.90921,2.211c-2.48276,0 -4.49543,-1.95677 -4.49543,-4.37056c0,-2.41379 2.01267,-4.37056 4.49543,-4.37056z" fill="#dddddd"/></g></g></g></g></g></svg>