<svg version="1.1" xmlns="http://www.w3.org/2000/svg" xmlns:xlink="http://www.w3.org/1999/xlink" width="99.66666" height="79" viewBox="0,0,99.66666,79"><g transform="translate(-190.16667,-140.5)"><g data-paper-data="{&quot;isPaintingLayer&quot;:true}" fill-rule="nonzero" stroke-linejoin="miter" stroke-miterlimit="10" stroke-dasharray="" stroke-dashoffset="0" style="mix-blend-mode: normal"><path d="M190.16667,219.5v-3.75h99.66666v3.75z" fill="#a0a0a0" stroke="none" stroke-width="0" stroke-linecap="butt"/><path d="M190.16667,216.25v-75.75h99.66666v75.75z" fill="#ffdb7e" stroke="none" stroke-width="0" stroke-linecap="butt"/><path d="M238.40934,216.43333v-33h4.58233v33z" fill="#cacaca" stroke="none" stroke-width="0" stroke-linecap="butt"/><g fill="#b5b5b5" stroke="#000000" stroke-width="1" stroke-linecap="butt"><path d="M190.74776,216.18333v-5.25h47v5.25z"/><path d="M190.74777,210.93334v-5.25h47v5.25z"/><path d="M190.74777,205.68334v-5.25h47v5.25z"/></g><g fill="#b5b5b5" stroke="#000000" stroke-width="1" stroke-linecap="butt"><path d="M190.74777,200.30834v-5.25h47v5.25z"/><path d="M190.74777,195.05834v-5.25h47v5.25z"/><path d="M190.74777,189.80834v-5.25h47v5.25z"/></g><path d="M238.24167,183.49583v-26.5h4.75v26.5z" fill="#6b6b6b" stroke="none" stroke-width="0" stroke-linecap="butt"/><g fill="none" stroke="#000000" stroke-width="1.5" stroke-linecap="round"><path d="M247.61798,190.76287l2.62055,-3.93082l2.75157,3.79979"/><path d="M250.23852,195.47985v-7.2065"/></g><g data-paper-data="{&quot;index&quot;:null}" fill="none" stroke="#000000" stroke-width="1.5" stroke-linecap="round"><path d="M235.45341,157.24086l-2.75157,3.79979l-2.62055,-3.93082"/><path d="M232.70184,152.39285v7.2065"/></g><g fill="none" stroke="#000000" stroke-width="1.5" stroke-linecap="round"><path d="M244.12217,153.19998l2.62054,-3.93082l2.75157,3.79979"/><path d="M246.74272,157.91696v-7.2065"/></g><path d="M243.0299,183.43826v-42.86838h46.80126v42.86838z" fill="#949494" stroke="none" stroke-width="0" stroke-linecap="butt"/></g></g></svg>